# xmcd CD database file
#
# Track frame offsets:
#	150
#	12130
#	28487
#	41174
#	53116
#	65370
#	78842
#	91748
#	103453
#	115447
#
# Disc length: 1768 seconds
#
# Revision: 0
# Processed by: cddbd v1.5.2PL0 Copyright (c) Steve Scherf et al.
# Submitted via: CDex 1.51
#
DISCID=8206e60a
DTITLE=Various Artist - Dolly Parton and the Gals of Country
DYEAR=2002
DGENRE=Country
TTITLE0=Making Believe. Dolly Parton
TTITLE1=Both sides now. Anne Murray
TTITLE2=Stand by your man. Lynn Anderson
TTITLE3=You can't put the city in a country girl. Barbara Fairchild
TTITLE4=The last thing on my mind. Anne Murray
TTITLE5=Fever. Billie Jo Spears
TTITLE6=Rose Garden. Lynn Anderson
TTITLE7=Cheating is. Barbara Fairchild
TTITLE8=Look what they've done to my song. Billie Jo Spears
TTITLE9=Blue Bayou. Lynn Anderson
EXTD=YEAR: 2002
EXTT0=
EXTT1=
EXTT2=
EXTT3=
EXTT4=
EXTT5=
EXTT6=
EXTT7=
EXTT8=
EXTT9=
PLAYORDER=
